<!DOCTYPE svg PUBLIC "-//W3C//DTD SVG 1.1//EN" "http://www.w3.org/Graphics/SVG/1.1/DTD/svg11.dtd">
<svg xmlns="http://www.w3.org/2000/svg" viewBox="0 0 512 512">
<path d="M235.5 33.13C141.897 42.071 66.046 113.092 50.343 206.5c-2.497 14.851-3.235 121.368-.919 132.5 5.116 24.583 23.907 40.716 50.076 42.996 15.114 1.316 21.56 4.001 26.226 10.926 2.226 3.303 2.274 3.945 2.274 30.41 0 37.154.375 37.811 25.709 44.995 69.665 19.756 140.695 19.37 208.435-1.132 22.323-6.756 21.804-5.727 21.834-43.297.022-27.036.069-27.671 2.296-30.976 4.654-6.907 11.046-9.579 26.226-10.963 26.315-2.399 44.964-18.398 50.076-42.959 2.316-11.132 1.578-117.649-.919-132.5C443.375 97.755 345.382 22.634 235.5 33.13M153 241.579c-34.945 9.196-51.546 48.85-34.239 81.786C127.297 339.608 147.23 352 164.824 352c7.458 0 34.073-4.942 40.349-7.492 49.401-20.074 44.914-89.741-6.633-102.978-7.995-2.052-37.675-2.021-45.54.049m159.782-.026c-13.796 3.345-27.885 14.374-34.528 27.028-17.171 32.715 2.087 71.928 38.746 78.895 4.125.784 11.145 2.123 15.6 2.975 38.406 7.345 69.073-19.139 67.105-57.951-1.298-25.577-16.783-44.754-41.165-50.978-7.802-1.992-37.497-1.972-45.758.031M248.3 321.958c-5.382 3.283-23.671 40.834-23.047 47.324 1.362 14.174 22.454 18.789 28.445 6.225 2.08-4.362 2.338-4.353 4.802.165 6.418 11.764 21.116 10.841 27.529-1.729 3.843-7.533 2.926-12.053-6.132-30.205-8.38-16.794-10.512-19.947-15.097-22.333-3.995-2.079-12.659-1.788-16.5.553" fill-rule="evenodd"/>
</svg>